<?xml version="1.0" encoding="utf-8"?>
<!-- Generator: Adobe Illustrator 22.1.0, SVG Export Plug-In . SVG Version: 6.00 Build 0)  -->
<svg version="1.1" id="Capa_1" xmlns="http://www.w3.org/2000/svg" xmlns:xlink="http://www.w3.org/1999/xlink" x="0px" y="0px"
	 viewBox="0 0 60 60" style="enable-background:new 0 0 60 60;" xml:space="preserve">
<metadata><?xpacket begin="﻿" id="W5M0MpCehiHzreSzNTczkc9d"?>
<x:xmpmeta xmlns:x="adobe:ns:meta/" x:xmptk="Adobe XMP Core 5.6-c143 79.161356, 2017/09/07-01:11:22        ">
   <rdf:RDF xmlns:rdf="http://www.w3.org/1999/02/22-rdf-syntax-ns#">
      <rdf:Description rdf:about=""/>
   </rdf:RDF>
</x:xmpmeta>
                                                                                                    
                                                                                                    
                                                                                                    
                                                                                                    
                                                                                                    
                                                                                                    
                                                                                                    
                                                                                                    
                                                                                                    
                                                                                                    
                                                                                                    
                                                                                                    
                                                                                                    
                                                                                                    
                                                                                                    
                                                                                                    
                                                                                                    
                                                                                                    
                                                                                                    
                                                                                                    
                           
<?xpacket end="w"?></metadata>
<style type="text/css">
	.st0{fill:#E94030;}
	.st1{fill:#0D3667;}
	.st2{fill:#FFFFFF;}
</style>
<circle class="st0" cx="30" cy="30" r="30"/>
<path class="st1" d="M39.6,49L39.6,49c-1.3,0-2.4-1.1-2.4-2.4V11c0-1.3,1.1-2.4,2.4-2.4h0c1.3,0,2.4,1.1,2.4,2.4v35.7
	C42,48,40.9,49,39.6,49z"/>
<path class="st2" d="M18,39.2L18,39.2c-1.3,0-2.4-1.1-2.4-2.4V23c0-1.3,1.1-2.4,2.4-2.4h0c1.3,0,2.4,1.1,2.4,2.4v13.8
	C20.4,38.1,19.3,39.2,18,39.2z"/>
<path class="st1" d="M28.8,45L28.8,45c-1.3,0-2.4-1.1-2.4-2.4V19.4c0-1.3,1.1-2.4,2.4-2.4h0c1.3,0,2.4,1.1,2.4,2.4v23.2
	C31.2,43.9,30.1,45,28.8,45z"/>
</svg>
